<?xml version="1.0" encoding="UTF-8"?>
<svg width="129px" height="189px" viewBox="0 0 129 189" version="1.1" xmlns="http://www.w3.org/2000/svg" xmlns:xlink="http://www.w3.org/1999/xlink">
    <!-- Generator: Sketch 43.2 (39069) - http://www.bohemiancoding.com/sketch -->
    <title>Group</title>
    <desc>Created with Sketch.</desc>
    <defs></defs>
    <g id="Page-1" stroke="none" stroke-width="1" fill="none" fill-rule="evenodd">
        <g id="Group">
            <path d="M2.3817,183.5452 C2.3817,183.5452 4.3307,185.5622 7.3387,185.5622 C8.7747,185.5622 10.2107,184.8102 10.2107,183.4082 C10.2107,180.2292 1.3217,180.8792 1.3217,175.2382 C1.3217,172.0922 4.1247,170.3152 7.5777,170.3152 C11.3727,170.3152 13.1507,172.2292 13.1507,172.2292 L11.8167,174.7252 C11.8167,174.7252 10.2787,173.1862 7.5437,173.1862 C6.1077,173.1862 4.7057,173.8022 4.7057,175.3062 C4.7057,178.4172 13.5947,177.7332 13.5947,183.4082 C13.5947,186.2802 11.1337,188.4342 7.3387,188.4342 C3.0997,188.4342 0.7747,185.9042 0.7747,185.9042 L2.3817,183.5452 Z" id="Fill-3" fill="#FFFFFF"></path>
            <path d="M74.3101,170.2535 L77.8031,170.2535 L77.8011,173.4025 C77.8081,173.4025 77.8011,173.4095 77.8011,173.4095 L77.8031,173.4085 C78.6581,170.6585 80.8271,170.2425 83.7261,170.2425 C84.2091,170.2425 84.6781,170.2535 84.6781,170.2535 L84.6911,173.1465 L83.6371,173.1465 C81.3331,173.1465 79.2151,175.1955 78.3601,177.9825 C78.0261,179.0605 77.9141,180.2125 77.9141,181.3645 L77.9141,188.2345 L74.3101,188.2345 L74.3101,170.2535 Z" id="Fill-5" fill="#FFFFFF"></path>
            <path d="M121.9857,170.2212 C117.9527,170.2212 115.6887,172.0102 114.9157,173.6292 C114.9217,173.4802 114.9257,173.3222 114.9257,173.1572 L114.9257,170.2292 L111.4327,170.2292 L111.4327,188.2582 L115.0367,188.2582 L115.0367,180.6632 C115.0367,179.7342 115.1107,178.8792 115.3337,178.1362 C116.1147,175.4232 118.4187,173.5282 121.2797,173.5282 C124.2897,173.5282 124.8467,175.6092 124.8467,178.2472 L124.8467,188.2582 L128.4517,188.2582 L128.4517,177.4302 C128.4517,172.6362 126.4077,170.2212 121.9857,170.2212" id="Fill-7" fill="#FFFFFF"></path>
            <path d="M33.9648,170.3114 L37.6608,170.3114 L42.0728,182.5814 C42.4318,183.5864 42.6468,185.0574 42.6828,185.0574 L42.7548,185.0574 C42.7908,185.0574 43.0428,183.5864 43.4008,182.5814 L47.8138,170.3114 L51.4738,170.3114 L44.7648,188.2584 L40.7458,188.2584 L33.9648,170.3114 Z" id="Fill-9" fill="#FFFFFF"></path>
            <path d="M26.7004,162.031 L30.3044,162.031 L30.3044,182.422 C30.3044,184.689 31.1964,185.098 32.3114,185.098 C32.6464,185.098 32.9434,185.061 32.9434,185.061 L32.9434,188.256 C32.9434,188.256 32.3854,188.331 31.7544,188.331 C29.7104,188.331 26.7004,187.773 26.7004,183.054 L26.7004,162.031 Z" id="Fill-11" fill="#FFFFFF"></path>
            <polygon id="Fill-13" fill="#FFFFFF" points="17.698 188.258 21.302 188.258 21.302 170.309 17.698 170.309"></polygon>
            <path d="M2.3817,183.5452 C2.3817,183.5452 4.3307,185.5622 7.3387,185.5622 C8.7747,185.5622 10.2107,184.8102 10.2107,183.4082 C10.2107,180.2292 1.3217,180.8792 1.3217,175.2382 C1.3217,172.0922 4.1247,170.3152 7.5777,170.3152 C11.3727,170.3152 13.1507,172.2292 13.1507,172.2292 L11.8167,174.7252 C11.8167,174.7252 10.2787,173.1862 7.5437,173.1862 C6.1077,173.1862 4.7057,173.8022 4.7057,175.3062 C4.7057,178.4172 13.5947,177.7332 13.5947,183.4082 C13.5947,186.2802 11.1337,188.4342 7.3387,188.4342 C3.0997,188.4342 0.7747,185.9042 0.7747,185.9042 L2.3817,183.5452 Z" id="Fill-15" fill="#FFFFFF"></path>
            <path d="M19.5079,163.1147 L19.5079,163.1147 C20.5139,163.1147 21.3289,163.9297 21.3289,164.9357 L21.3289,164.9727 C21.3289,165.9787 20.5139,166.7937 19.5079,166.7937 C18.5019,166.7937 17.6869,165.9787 17.6869,164.9727 L17.6869,164.9357 C17.6869,163.9297 18.5019,163.1147 19.5079,163.1147" id="Fill-16" fill="#FFFFFF"></path>
            <path d="M103.6481,164.8619 L103.6481,164.9549 C103.6481,165.9449 104.4511,166.7479 105.4411,166.7479 C106.4311,166.7479 107.2341,165.9449 107.2341,164.9549 L107.2341,164.8619 C107.2341,163.8719 106.4311,163.0689 105.4411,163.0689 C104.4511,163.0689 103.6481,163.8719 103.6481,164.8619" id="Fill-17" fill="#FFFFFF"></path>
            <polygon id="Fill-18" fill="#FFFFFF" points="103.725 176.3718 103.706 176.3718 103.706 188.3438 107.311 188.3438 107.311 170.2118 103.725 170.2118"></polygon>
            <path d="M99.5156,170.3333 L94.6426,170.3333 L94.6426,169.1443 C94.6426,165.6513 97.2056,165.2053 98.5806,165.2053 C99.1386,165.2053 99.5106,165.2793 99.5106,165.2793 L99.5106,162.1953 C99.5106,162.1953 98.9526,162.0833 98.1346,162.0833 C95.7566,162.0833 91.0746,162.8643 91.0746,169.0693 L91.0746,170.3333 L88.7336,170.3333 L88.7336,173.2313 L91.0746,173.2313 L91.0746,188.2583 L94.6426,188.2583 L94.6426,173.2313 L99.5156,173.2313 L99.5156,170.3333 Z" id="Fill-19" fill="#FFFFFF"></path>
            <path d="M61.6533,0.5076 C34.5483,0.5076 12.5723,22.4386 12.5723,49.4906 C12.5723,60.9106 16.6523,71.2816 23.2163,79.6116 C29.8563,71.1916 39.1583,64.9996 49.8903,62.3976 C45.5493,58.9116 42.7163,53.6316 42.7163,47.6386 C42.7163,37.1346 51.2493,28.6196 61.7743,28.6196 C72.2983,28.6196 80.8313,37.1346 80.8313,47.6386 C80.8313,49.0876 80.6353,50.4856 80.3283,51.8416 C90.4243,55.0786 99.3733,60.8666 106.4103,68.4496 C106.4973,68.5456 106.5863,68.6406 106.6753,68.7366 L106.6943,68.9366 C109.2823,62.9736 110.7353,56.4036 110.7353,49.4906 C110.7353,22.4386 88.7613,0.5076 61.6533,0.5076" id="Fill-20" fill="#79C5C1"></path>
            <path d="M100.1974,79.7238 L100.1994,79.7268 C100.2234,79.6968 100.2564,79.6738 100.2804,79.6438" id="Fill-21" fill="#79C5C1"></path>
            <path d="M99.9474,79.5233 C93.3064,87.9543 83.9604,94.1483 73.2094,96.8013 C77.4914,100.2843 80.2314,105.5853 80.2364,111.5303 C80.2464,122.0343 71.7214,130.5563 61.1974,130.5663 C50.6714,130.5753 42.1314,122.0683 42.1224,111.5643 C42.1204,110.1153 42.3144,108.7173 42.6204,107.3603 C32.5234,104.1323 23.5684,98.3533 16.5244,90.7763 L16.1914,90.4203 C13.6084,96.3863 12.2104,102.8263 12.2174,109.7393 C12.2414,136.7923 34.2354,158.7023 61.3424,158.6773 C88.4494,158.6533 110.4034,136.7023 110.3784,109.6503 C110.3684,98.2813 106.4674,87.8293 99.9474,79.5233" id="Fill-22" fill="#414F5C"></path>
            <path d="M99.973,79.5621 C91.043,68.2501 78.794,61.1571 61.592,61.0001 C45.992,60.8571 32.235,68.1621 23.304,79.4751 L23.181,79.5771 C32.109,90.9261 45.996,98.2191 61.592,98.2191 C77.177,98.2191 91.049,90.9131 99.978,79.5781 L99.973,79.5621 Z" id="Fill-23" fill="#2DA4BB"></path>
            <path d="M66.5351,177.1624 C66.4331,174.1984 64.5941,172.7684 62.3801,172.7684 C59.8591,172.7684 57.8151,174.3354 57.3381,177.1624 L66.5351,177.1624 Z M62.4471,170.1454 C67.3191,170.1454 69.9071,173.7564 69.9071,178.2184 C69.9071,178.6614 69.8051,179.6484 69.8051,179.6484 L57.2361,179.6484 C57.4071,183.4294 60.0971,185.3374 63.1631,185.3374 C66.1271,185.3374 68.2721,183.3274 68.2721,183.3274 L69.6351,185.7464 C69.6351,185.7464 67.0801,188.1984 62.9591,188.1984 C57.5431,188.1984 53.8301,184.2814 53.8301,179.1724 C53.8301,173.6884 57.5431,170.1454 62.4471,170.1454 L62.4471,170.1454 Z" id="Fill-24" fill="#FFFFFF"></path>
        </g>
    </g>
</svg>