<?xml version="1.0" encoding="utf-8"?>
<!-- Generator: Adobe Illustrator 21.1.0, SVG Export Plug-In . SVG Version: 6.00 Build 0)  -->
<svg version="1.1" id="Layer_1" xmlns="http://www.w3.org/2000/svg" xmlns:xlink="http://www.w3.org/1999/xlink" x="0px" y="0px"
	 viewBox="0 0 596 900" style="enable-background:new 0 0 596 900;" xml:space="preserve">
<style type="text/css">
	.st0{fill:#FFFFFF;}
	.st1{fill:#A4E0DE;}
	.st2{fill:#13C5E2;}
</style>
<g>
	<rect x="92.7" y="651.8" class="st0" width="20.3" height="79.4"/>
	<rect x="132.8" y="612.4" class="st0" width="20.3" height="118.9"/>
	<polygon class="st0" points="206.4,706.5 188.8,651.7 167.5,651.9 196,731.1 216,731.1 244.2,651.7 223.6,651.7 	"/>
	<path class="st0" d="M316,662.2c-6-7.3-15-11-26.8-11c-7.3,0-13.8,1.7-19.6,5.1c-5.7,3.4-10.2,8.3-13.4,14.4
		c-3.2,6.1-4.8,13.2-4.8,21s1.6,14.9,4.7,20.9c3.1,6.1,7.7,10.9,13.4,14.2c5.8,3.4,12.5,5.1,20,5.1c6.4,0,12.3-1.2,17.6-3.6
		c5.3-2.4,9.8-5.8,13.5-10.1l0.8-1l-11.3-12.6l-1.1,1.2c-2.3,2.6-5.1,4.6-8.2,6s-6.4,2.1-9.9,2.1c-4.9,0-8.9-1.4-12.3-4.3
		c-2.9-2.5-5-5.9-6.2-10.2h52.1l0.1-1.4c0.1-1.3,0.1-3.2,0.1-5.7C325,679.6,321.9,669.4,316,662.2L316,662.2z M306.1,684.2h-34
		c0.9-4.6,2.8-8.3,5.6-11c3.2-3,7-4.5,11.7-4.5c5.1,0,9,1.5,12,4.6C304.1,676,305.6,679.6,306.1,684.2z"/>
	<path class="st0" d="M370.1,655.4c-2.9,1.8-5.4,4.3-7.5,7.2v-10.8h-20.3v79.4h20.3v-36.9c0-6.7,0.8-12.6,6.1-17.9
		c4.9-4.9,9.7-6.2,16.6-6.2h1.6v-18.6h-1.5C379.5,651.8,374.4,652.7,370.1,655.4z"/>
	<path class="st0" d="M410,642.4v9.4h-10.7v18.5H410v61.5h22v-61.5h18.2v-18.5H432v-6.9c0-9,6.4-12.1,11.3-12.1l6.9-0.1v-20.1h-10.8
		C421.5,612.4,410,624.2,410,642.4z"/>
	<path class="st0" d="M574.6,659.6L574.6,659.6c-5-5.6-11.9-8.4-20.5-8.4c-10.7,0.2-18.7,3.9-24.1,11.2v-10.5h-20.3v79.4H530v-39.1
		c0-6,1.6-11,4.7-14.8c3.1-3.8,7.2-5.7,12.5-5.7c4.5,0,7.9,1.4,10.5,4.2s3.9,6.7,3.9,11.7v43.8H582v-49.2
		C582,672.7,579.5,665.1,574.6,659.6z"/>
	<path class="st0" d="M52.8,683.7l-10.7-2.3c-4.1-0.8-6.9-3.1-6.9-6.7c0-4.3,4.3-7.5,9.6-7.5c8.6,0,11.8,5.7,12.4,10.1l17-3.8
		c-0.9-8.1-8.1-21.7-29.6-21.7c-16.2,0-28.2,11.2-28.2,24.7c0,10.6,6.6,19.3,21.1,22.5l10,2.3c5.8,1.2,8.1,4,8.1,7.4
		c0,4-3.2,7.5-10,7.5c-8.9,0-13.3-5.5-13.8-11.5l-17.5,3.8c0.9,8.6,8.7,23.3,31.4,23.3c19.8,0,29.3-12.6,29.3-24.8
		C75.2,695.8,67.7,686.8,52.8,683.7z"/>
	<circle class="st0" cx="102.7" cy="624.6" r="12.2"/>
	<g>
		<rect x="469.6" y="651.8" class="st0" width="20.3" height="79.4"/>
		<circle class="st0" cx="479.7" cy="624.6" r="12.2"/>
	</g>
</g>
<g>
	<path class="st1" d="M296.8,302L296.8,302c-11.4-0.4-22.2-6.7-28.3-16.4h0.1c-5.1-8.2-6.6-18.4-4-27.7c2.1-7.5,6.7-14.2,12.9-18.8
		c6.5-4.8,14.7-7.2,22.8-6.7c9.3,0.6,18,5,24,12c6.4,7.5,9.4,17.4,8.1,27.1c22.7,5.9,43.1,17.4,59.6,33.1
		c4.8-11.9,7.2-24.7,7.2-37.5h0.1c0-12.8-2.4-25.5-7.1-37.4c-4.6-11.4-11.2-22-19.5-31.1c-9.2-10.1-20.5-18.3-32.9-23.9
		c-13.9-6.3-29-9.4-44.2-9c-12.2,0.3-24.3,2.8-35.6,7.4c-10.2,4.2-19.8,10-28.2,17.2c-8.3,7.2-15.5,15.7-21.1,25.2
		c-5.7,9.7-9.8,20.3-12.1,31.3c-2.6,12.9-2.7,26.2-0.3,39.1c2.8,14.7,8.9,28.8,17.7,40.8c2.1,2.9,4.4,5.7,6.8,8.3
		C241.6,314.6,268.2,302.3,296.8,302z"/>
	<g>
		<path class="st0" d="M399.4,401c-0.3-13.7-3.5-27.3-9.2-39.8c-1.4-3.1-3-6.1-4.7-9c-3.5-6-7.7-11.7-12.4-16.8
			c-17.7,19.5-43,32-71,33.2c-0.2,0-0.3,0-0.5,0c-0.7,0-1.3,0-2,0c-0.2,0-0.4,0-0.6,0c11.9,0.4,22.5,6.9,28.5,16.4l0,0
			c5.1,8.2,6.6,18.4,4,27.7c-2.1,7.6-6.8,14.3-13.2,18.9c-6.7,4.8-15,7.1-23.2,6.4c-8.8-0.7-17-4.9-22.9-11.4
			c-6.5-7.2-9.7-17-8.8-26.6c-22.8-5.9-43.3-17.6-59.8-33.3c-4.4,11.4-6.9,23.7-6.9,36.6l0,0c0,12.4,2.2,24.9,6.7,36.5
			c4.3,11.1,10.6,21.5,18.5,30.5c7.6,8.6,16.6,15.9,26.5,21.5c10.2,5.7,21.4,9.7,33,11.6c12,2,24.4,1.8,36.3-0.5
			c11.3-2.2,22.1-6.4,32-12.3c9.7-5.8,18.5-13.2,25.8-21.8c7.7-9.2,13.9-19.7,17.9-30.9C397.7,426.1,399.7,413.5,399.4,401z"/>
		<path class="st2" d="M373.1,335.3L373.1,335.3c-19.1-21.1-46-33.5-74.6-33.3l0,0c-0.6,0-1.1,0-1.7,0
			c-28.6,0.3-55.2,12.6-73.9,33.3l0,0l0.1,0.1c19,20.9,46.7,33.3,75,33.3l0,0c0.5,0,1.1,0,1.6,0c0.7,0,1.3,0,2,0c0.2,0,0.3,0,0.5,0
			C330.2,367.4,355.4,354.9,373.1,335.3C373.1,335.4,373.1,335.3,373.1,335.3z"/>
	</g>
</g>
</svg>
